<svg width="35" height="42" viewBox="0 0 35 42" fill="none" xmlns="http://www.w3.org/2000/svg">
<path d="M30.9265 25.9514L31.3297 26.5838L30.9265 25.9514L8.03916 40.5428C8.03914 40.5428 8.03913 40.5428 8.03912 40.5428C5.7646 41.9927 2.79876 41.1523 1.42495 38.5247C0.0332681 35.8628 0.8721 32.4922 3.19533 31.0088L9.69407 26.951L9.6958 26.95L8.90309 25.6765C6.64643 27.0771 3.67008 26.1864 2.30012 23.5662L1.63549 23.9137L2.30012 23.5662C0.907872 20.9035 1.74793 17.5311 4.07343 16.0485L26.961 1.45723L26.961 1.45721C29.2352 0.00721535 32.2012 0.847753 33.575 3.47531L33.575 3.47536C34.9674 6.13809 34.1272 9.51048 31.8016 10.9931L32.1825 11.5905L31.8016 10.9931L25.3363 15.115L26.135 16.3846C28.4013 14.978 31.3357 15.8245 32.6998 18.4337C34.092 21.0965 33.252 24.4689 30.9265 25.9514ZM23.3685 21.6085L24.3237 20.9213L23.2974 20.3455L13.8263 15.0322L12.7094 14.4055V15.6863V27.8131V29.2766L13.8974 28.422L23.3685 21.6085Z" stroke="black" stroke-width="1.5"/>
</svg>
